<svg xmlns="http://www.w3.org/2000/svg" version="1.1" xmlns:xlink="http://www.w3.org/1999/xlink" xmlns:svgjs="http://svgjs.com/svgjs" width="139.0639mm" height="127.54907mm"><svg width="139.0639mm" height="127.54907mm" viewBox="0 0 139.0639 127.54907" version="1.1" id="SvgjsSvg1004" inkscape:version="1.1.2 (b8e25be8, 2022-02-05)" sodipodi:docname="walking_cj-logo-inkscape.svg" xmlns:inkscape="http://www.inkscape.org/namespaces/inkscape" xmlns:sodipodi="http://sodipodi.sourceforge.net/DTD/sodipodi-0.dtd" xmlns="http://www.w3.org/2000/svg" xmlns:svg="http://www.w3.org/2000/svg">
  <sodipodi:namedview id="SvgjsSodipodi:namedview1003" pagecolor="#ffffff" bordercolor="#666666" borderopacity="1.0" inkscape:pageshadow="2" inkscape:pageopacity="0.0" inkscape:pagecheckerboard="true" inkscape:document-units="mm" showgrid="false" fit-margin-top="0" fit-margin-left="0" fit-margin-right="0" fit-margin-bottom="0" inkscape:zoom="0.50600449" inkscape:cx="259.87912" inkscape:cy="430.82622" inkscape:window-width="1440" inkscape:window-height="900" inkscape:window-x="0" inkscape:window-y="0" inkscape:window-maximized="0" inkscape:current-layer="layer1"></sodipodi:namedview>
  <defs id="SvgjsDefs1002"></defs>
  <g inkscape:label="Layer 1" inkscape:groupmode="layer" id="SvgjsG1001" transform="translate(-35.94785,-34.594561)">
    <path style="fill:#040404;stroke:none;stroke-width:0.417884" d="m 36.692004,151.2411 c -4.151512,6.57332 10.183049,11.37815 15.461723,10.86499 7.116697,-0.69202 11.682502,-12.24819 13.790186,-17.96903 3.044998,1.76306 5.116284,4.90596 8.357688,6.61637 9.918068,5.23442 22.684437,5.14499 31.759219,-2.01964 7.3159,18.53359 35.03459,16.8094 42.97231,0 3.74466,-7.92936 2.15921,-18.16836 2.15921,-26.7446 0,-17.60129 0.41788,-35.074714 0.41788,-52.653434 h 23.40153 v -10.44711 h -45.5494 -12.95442 c -1.66903,0 -4.29251,-0.49912 -5.85038,0.13928 -1.49561,0.61299 -1.48684,10.11978 0,10.65605 2.43417,0.87789 6.59505,0.0697 9.19346,0.0697 h 21.3121 V 117.3925 c 0,7.68573 1.30923,16.77096 -0.55704,24.2373 -3.40826,13.63306 -23.93098,14.05303 -26.74461,-0.41789 -0.57877,-2.97575 3.15545,-7.92267 3.48224,-11.28288 0.66235,-6.81193 -1.32511,-13.25069 -3.34308,-19.64056 l -11.28288,2.92519 c 1.2056,6.54448 3.75971,13.49056 1.1145,20.05845 -4.248214,10.5474 -18.66857,12.4914 -26.605448,5.01461 -5.360622,-5.04971 -6.195638,-14.53151 -8.079085,-21.3121 L 59.536365,82.290166 c -1.557747,-5.60801 -4.312358,-11.76048 -4.875332,-17.55114 -0.683073,-7.02602 2.995271,-14.05345 9.611342,-16.99398 8.252172,-3.66765 16.622606,-0.23602 21.172949,7.38264 1.015459,1.7007 1.95946,6.73934 3.552018,7.73086 1.857914,1.15679 8.997887,-2.30823 11.213088,-2.71625 -1.959038,-6.76722 -3.737554,-13.4616 -9.193453,-18.38691 -14.090644,-12.72079 -39.002238,-7.95501 -46.245889,10.02922 -4.206466,10.44364 -0.616881,19.84324 2.228745,30.08768 3.325106,11.9703 6.56509,23.968594 9.889903,35.938064 1.346884,4.84871 4.527276,11.2695 4.457448,16.29749 -0.02411,1.73589 -1.603757,3.96823 -2.437645,5.43249 -2.339359,4.10823 -5.541732,15.40907 -10.934656,16.15834 -3.973914,0.55161 -7.84181,-3.18971 -11.282879,-4.45757 z" id="SvgjsPath1000"></path>
  </g>
</svg><style>@media (prefers-color-scheme: light) { :root { filter: none; } }
@media (prefers-color-scheme: dark) { :root { filter: invert(100%); } }
</style></svg>