<svg xmlns="http://www.w3.org/2000/svg" width="1000pt" height="1000pt" style="isolation:isolate" viewBox="0 0 1000 1000"><defs><clipPath id="a"><path d="M0 0h1000v1000H0z"/></clipPath></defs><g clip-path="url(#a)"><path fill="#010001" d="M54.814 873.072c-26.862 46.386 65.905 80.287 100.07 76.663 46.055-4.88 75.614-86.422 89.246-126.794 19.709 12.443 33.116 34.625 54.089 46.691 64.191 36.933 146.808 36.3 205.541-14.25 47.348 130.775 226.739 118.607 278.112 0 24.231-55.95 13.97-128.193 13.97-188.716 0-124.191 2.705-247.494 2.705-371.521H950v-73.723H571.369c-10.796 0-27.78-3.522-37.863.99-9.672 4.318-9.616 71.406 0 75.183 15.757 6.196 42.685.49 59.5.49h137.933v336.15c0 54.235 8.473 118.342-3.605 171.015-22.059 96.201-154.879 99.161-173.09-2.95-3.745-20.998 20.42-55.899 22.536-79.612 4.289-48.06-8.576-93.496-21.637-138.585l-73.02 20.641c7.799 46.181 24.334 95.19 7.209 141.534-27.489 74.417-120.817 88.137-172.182 35.381-34.689-35.636-40.101-102.539-52.291-150.384l-62.197-244.728c-10.084-39.576-27.91-82.981-31.553-123.844-4.419-49.58 19.381-99.16 62.207-119.913 53.405-25.878 107.578-1.664 137.024 52.091 6.573 12.005 12.678 47.56 22.986 54.552 12.022 8.166 58.236-16.282 72.571-19.16-12.677-47.754-24.194-94.996-59.501-129.744-91.193-89.76-252.411-56.134-299.291 70.762-27.227 73.691-3.997 140.013 14.419 212.306 21.516 84.461 42.488 169.127 64.004 253.578 8.717 34.217 29.306 79.531 28.847 114.993-.15 12.25-10.374 28.001-15.776 38.332-15.14 28.99-35.86 108.736-70.764 114.013-25.72 3.9-50.756-22.498-73.021-31.451v.01Z"/></g></svg>