<svg xmlns="http://www.w3.org/2000/svg" width="1536" height="1536" style="isolation:isolate" viewBox="0 0 1152 1152"><defs><clipPath id="a"><path d="M0 0h1152v1152H0z"/></clipPath></defs><g clip-path="url(#a)"><path d="m589.555 937.112-.635.062-.318.032.162-.016s-.146.172-.62.219c-.62.224-1.078.432-1.396.463-.599.38-1.203.761-1.646 1.125-.588.537-1.172 1.073-1.458 1.422-.412.682-.682 1.188-.932 1.854l-.443 1.964c4.396 45.635 7.802 79.692 10.062 102.344l.094.953c.031.317.063.635.255.932.219.62.599 1.224.979 1.823.381.604.761 1.203 1.287 1.63.365.448.885.875 1.552 1.125.682.417 1.344.667 1.995.76.666.256 1.297.193 1.932.131a4.525 4.525 0 0 0 2.057-.209c.636-.062 1.24-.442 1.839-.823.62-.218 1.062-.583 1.651-1.125.443-.364.87-.885 1.281-1.567.255-.667.683-1.188.933-1.854.098-.646.192-1.297.27-2.105l-.187-1.901c-1.505-15.047-2.469-26.312-3.229-33.916l18.692-1.865c7.349 12.703 13.079 22.052 16.912 28.386l.015.161c24.36 42.042 42.719 73.646 54.881 94.505.187.302.38.604.567.906.193.297.365.443.714.73l1.713 1.104c.381.604 1.042.859 1.693.953.667.255 1.318.349 2.11.271.328.125.645.093 1.125.047l.791-.079a4.916 4.916 0 0 0 2.011-.682c.599-.38 1.047-.745 1.645-1.125.443-.364.87-.885 1.443-1.583.271-.505.698-1.031.953-1.698.25-.662.344-1.313.443-1.964-.062-.63.047-1.125-.016-1.755l-.031-.318c-.068-.635-.286-1.25-.51-1.869-.38-.604-.599-1.219-.979-1.823l-54.5-93.906c-.381-.599-2.469-3.912-5.954-9.964a302.892 302.892 0 0 1-8.458-14.193c1.823-.984 3.469-2.109 4.927-3.531a24.55 24.55 0 0 0 3.896-4.229 29.75 29.75 0 0 0 4.375-9.078c.807-3.12 1.125-6.349 1.094-9.87l-.063-.63c-.015-.162.094-.651.032-1.287-.777-7.76-1.521-13.604-1.917-17.562l-.063-.636c-.177-.14-.38-.604-.604-1.218-.76-4.407-3.307-9.11-7.791-13.943-4.641-4.813-11.006-7.698-19.277-8.792-.317.031-.651-.094-.807-.078a5.136 5.136 0 0 1-1.281-.031l-33.266 3.323Zm13.854 57.01-2.072-20.75-2.089-20.911 24.234-2.422c5.037.776 8.381 2.203 10.026 4.276 1.49 2.094 2.521 4.391 3.058 6.578l1.802 18.057c.13 1.266-.047 2.724-.521 4.37-.474 1.646-1.302 3.011-2.141 4.214-.838 1.203-1.869 2.109-2.911 2.849-1.208.76-2.458 1.046-3.886 1.192l-25.5 2.547Z"/><path d="m678.509 922.852-.615.172c-.307.089-.458.13-.151.042 0 0-.156.047-.614.177-.568.323-.985.609-1.25.849-.527.479-1.053.958-1.422 1.396-.526.479-1.011 1.114-1.188 1.656-.328.594-.505 1.141-.635 1.838-.136.698-.266 1.396-.25 2.053.036 4.791-.021 10.432.182 16.994.047 6.605.073 13.709.146 20.969.151 8.724.151 17.495.307 26.219.042 8.922.13 16.838.073 23.64.031 3.631-.016 6.954.104 9.73.016 2.974.011 5.291-.015 6.953l-.047 1.005c-.063.349.021.656.067.812l.042.152c.214.765.542 1.333.719 1.947.213.766.542 1.334.979 1.709.479.526.958 1.052 1.547 1.38a3.135 3.135 0 0 0 1.771.99c.588.328 1.286.463 1.984.593.703.136 1.359.115 1.969-.057.354.063.812-.068 1.271-.198l.765-.213a4.278 4.278 0 0 0 1.709-.98c.567-.328 1.093-.807 1.578-1.442.37-.433.703-1.026 1.031-1.615.328-.588.464-1.286.594-1.989.135-.698.114-1.355.245-2.053-.084-9.078-.178-15.833-.167-20.468 15.667-4.271 27.307-7.568 35.12-9.776 4.484 7.661 7.948 13.468 10.343 17.255l.568.833c.089.307.328.568.719.787.479.526.917.901 1.661 1.187.438.37 1.026.703 1.724.833.698.136 1.401.266 2.058.245.698.136 1.312-.036 1.921-.213a4.56 4.56 0 0 0 1.995-.563c.568-.328 1.136-.651 1.662-1.135.526-.479.901-.912 1.38-1.547.375-.438.661-1.177.948-1.922.177-.547.307-1.245.443-1.943l-.063-1.968-.219-.766-.343-1.229c-.329-.568-.657-1.136-.98-1.709-23.786-39.593-41.427-69.177-53.317-88.973-.24-.261-.521-.678-.61-.985-.239-.265-.437-.375-.677-.635l-1.656-1.188c-.589-.328-1.182-.656-1.724-.833-.703-.136-1.401-.266-2.099-.401l-1.927.219-7.656 2.166Zm10.37 23.203c11.937 19.948 20.822 34.974 26.921 44.829-11.948 3.38-20.724 5.697-26.541 7.348-.25-23.093-.407-40.588-.38-52.177Zm88.52-63.999c-.5.068-1.14.209-1.781.349-.714.349-1 .495-.927.282 0 0-.073.213-.5.421-.573.282-.927.641-1.214.782-.432.567-.859 1.135-1.359 1.557-.432.568-.786 1.281-.865 1.849-.354.708-.432 1.281-.432 1.99-.146.786-.219 1.354.063 1.927-.006.708.208 1.494.489 2.062.281.573.568 1.146.99 1.646 16.521 34.094 29.021 59.703 37.422 76.682-31.636-28.75-55.469-50.343-71.287-64.718l-.708-.714c-.427-.146-.641-.219-.922-.432-.641-.214-1.281-.433-1.922-.646a31.6 31.6 0 0 0-1.922-.297c-.713 0-1.354.141-1.995.281-.713.349-1.354.49-1.927.771l-7.276 3.604-.994.495c-.287.141-.5.422-.787.568-.432.567-.859 1.135-1.219 1.489-.427.568-.786 1.276-1.073 1.776-.286.849-.364 1.422-.437 1.99-.146.781-.146 1.495-.005 2.135-.006.714.276 1.282.562 1.855.349.713.636 1.281 1.057 1.781a26088.05 26088.05 0 0 0 43.995 89.245l.495 1c.141.281.281.567.568.781.567.432.989.932 1.557 1.359.568.432 1.068.719 1.708.932.568.433 1.276.433 1.99.438.641.214 1.354.219 1.995.078a4.347 4.347 0 0 0 2.062-.489l.573-.282c.287-.14.714-.354 1.073-.708a4.888 4.888 0 0 0 1.641-1.349c.286-.495.573-.99.932-1.703.286-.495.505-1.136.651-1.917.073-.573.219-1.354.219-2.068-.141-.64-.276-1.281-.417-1.921-.286-.573-.495-1.355-.776-1.927l-35.099-70.907c29.156 26.599 51.073 46.479 65.828 59.782l.709.718c.14.282.567.427.921.427a3.122 3.122 0 0 0 1.922.651c.495.287 1.209.287 1.922.292.714.005 1.422.005 1.995-.276.641-.141 1.214-.422 1.922-.776l9.562-4.729.855-.427c.286-.141.713-.354.927-.636.286-.5.786-.922 1.218-1.489.427-.568.714-1.068 1.073-1.776l.438-1.99c0-.713-.136-1.354-.136-2.068-.14-.64-.281-1.281-.416-1.921-.287-.573-.782-1.214-1.063-1.787-19.349-39.802-33.89-69.552-43.567-89.453l-.068-.141-.422-.859c-.146-.287-.427-.5-.568-.787-.567-.427-.995-.927-1.562-1.359-.568-.427-1.063-.713-1.703-.932-.641-.214-1.282-.432-1.849-.505-.714 0-1.427-.006-2.136-.006Zm66.823-28.721c-2.99-1.343-7.636-2.239-13.938-2.697-6.432-.365-13.026 1.979-19.916 7.125-3.443 2.572-6.375 5.557-8.927 9.057a38.562 38.562 0 0 0-5.756 11.453 30.873 30.873 0 0 0-1.109 13.146c.438 4.838 2.214 9.078 5.26 13.156l32.303 43.234c3.713 4.974 8.005 8.329 12.968 10.183 4.964 1.859 9.61 2.755 14.006 2.255 4.265-.406 8.151-1.323 11.562-2.875 3.281-1.458 6.12-2.979 8.417-4.698l.125-.094.13-.094.125-.093c.734-.349 1.37-.828 2.135-1.401 5.104-3.808 8.709-8.292 10.599-13.479 2.172-5.599 3.042-10.818 2.448-15.339a56.046 56.046 0 0 0-.193-1.052c-.062-.349-.125-.703-.312-.958-.38-.511-.635-1.115-1.115-1.75-.38-.511-.76-1.021-1.234-1.662-.641-.318-1.052-.604-1.687-.922-.636-.323-1.308-.416-1.943-.739-.667-.094-1.334-.193-2.037-.068-.698.125-1.276.156-1.974.286-.604.25-1.338.599-1.942.855l-1.532 1.14c-.541.604-.958 1.115-1.276 1.75-.323.636-.546 1.401-.739 1.943-.318.635-.287 1.208-.162 1.911 0 .792.032 1.365.063 1.938.219 1.625-.198 3.729-1.031 6.338-.834 2.61-3.261 5.214-7.276 7.818l-.636.474c-.255.193-.417.51-.927.891-.51.38-1.849.984-4.016 1.807a18.32 18.32 0 0 1-6.849 1.74c-2.416.218-4.552.02-6.494-.714-1.969-.516-4.099-2.302-6.198-5.104l-32.297-43.235c-1.333-1.786-2.188-3.729-2.375-5.578-.188-1.849.135-4.078.807-6.364.641-2.073 1.755-4.297 3.354-6.683 1.662-2.036 3.417-3.942 5.453-5.463 4.339-3.24 8.068-4.635 10.865-4.344 2.995.547 5.188 1.094 6.781 1.891.318.161.542.193.985.255.192.255.635.323.989.26a3.752 3.752 0 0 0 1.907.162c.671.099 1.369-.031 1.973-.281a4.452 4.452 0 0 0 1.948-.86c.605-.25 1.115-.635 1.657-1.234.51-.386.927-.891 1.244-1.526.318-.641.511-1.177.735-1.943.193-.542.291-1.208.291-2.005-.031-.573.068-1.24-.057-1.943a44.9 44.9 0 0 0-.859-1.942c-.188-.256-.349-.735-.636-1.115l-.38-.51a4.914 4.914 0 0 0-1.62-1.375c-.635-.318-1.052-.605-1.687-.928Zm-4.638-18.713-.219.234c-.328.349-.438.464-.328.349l-.328.349c-.318.573-.526 1.026-.63 1.37-.204.682-.407 1.364-.506 1.927-.203.682-.291 1.474-.161 2.036.14.782.271 1.344.625 1.896.245.667.489 1.333.844 1.886 33.307 31.51 58.25 54.947 74.838 70.536l.813.766c.229.213.463.432.802.536.682.203 1.255.526 1.937.729.683.203 1.365.406 1.927.276.792.089 1.464.068 2.131-.177a5.899 5.899 0 0 0 1.781-.734 4.426 4.426 0 0 0 1.765-1.177l.438-.469.979-1.042c.438-.463.641-1.146.844-1.828.203-.682.302-1.25.385-2.041.099-.563.078-1.24-.062-2.021-.13-.563-.375-1.229-.62-1.896-.13-.563-.484-1.115-1.068-1.656-.463-.438-.817-.99-1.396-1.537l-30.166-28.338 24.854-26.454 30.63 28.777.813.765c.229.219.463.438.802.537.682.203 1.255.526 1.937.729.682.203 1.365.406 1.927.276.683.208 1.464.068 2.13-.177.563-.13 1.23-.375 1.782-.729a4.503 4.503 0 0 0 1.765-1.183c.552-.354.99-.817 1.308-1.39.437-.469.75-1.266.953-1.948.203-.683.297-1.245.385-2.037.099-.567.078-1.245-.062-2.026-.131-.557-.375-1.229-.62-1.896a16.5 16.5 0 0 0-1.068-1.656c-.463-.437-.818-.989-1.396-1.531l-73.093-68.677-.693-.656c-.234-.219-.693-.428-.922-.646-.682-.203-1.141-.417-1.823-.62-.682-.203-1.354-.182-2.036-.385-.677.02-1.349.041-1.912.171-.666.245-1.333.49-2.005.74l-1.656 1.062-1.417 1.511.656-.698c.219-.234.219-.234.11-.115l-.657.693c-.218.234-.317.573-.421.917-.204.682-.521 1.255-.73 1.937-.203.683-.291 1.474-.276 1.922-.088.792.042 1.349.287 2.021.14.781.271 1.339.625 1.891.245.671.823 1.213 1.286 1.651.469.437 1.047.979 1.62 1.302 13.349 12.76 23.328 22.135 29.938 28.349l-24.855 26.453-31.088-29.219-.698-.651c-.234-.219-.688-.427-.922-.646-.682-.203-1.141-.416-1.823-.62-.682-.203-1.245-.302-2.036-.385-.677.021-1.349.042-1.912.172-.666.245-1.333.489-2.005.734-.552.354-1.099.714-1.651 1.068l-1.422 1.505.438-.463.328-.349ZM277.65 795.519l-.219-.234c-.328-.344-.437-.464-.328-.344.219.229.11.114-.323-.349-.552-.354-.994-.594-1.333-.719-.667-.245-1.333-.489-1.891-.62-.671-.25-1.453-.385-2.02-.291-.792.088-1.36.182-1.933.505-.682.203-1.359.406-1.937.729a27077.84 27077.84 0 0 0-75.052 70.302l-.813.766c-.229.213-.463.432-.588.765-.245.672-.599 1.224-.844 1.891-.25.667-.495 1.333-.401 1.901-.136.787-.156 1.458.047 2.141.099.567.302 1.25.62 1.823.203.682.526 1.255 1.067 1.833l.438.464.984 1.046c.432.464 1.099.709 1.771.954.667.25 1.224.38 2.01.515.558.13 1.235.151 2.026.063.563-.094 1.245-.297 1.928-.5.567-.099 1.14-.417 1.718-.964.469-.437 1.042-.755 1.62-1.302l30.162-28.339 24.854 26.448-30.625 28.782-.813.76c-.234.219-.463.438-.588.771-.245.667-.599 1.219-.844 1.891-.25.666-.495 1.333-.401 1.901-.245.666-.156 1.458.047 2.14a5.88 5.88 0 0 0 .62 1.823c.203.682.526 1.255 1.067 1.833a3.886 3.886 0 0 0 1.308 1.391c.437.464 1.213.828 1.885 1.073.667.245 1.224.375 2.01.516.558.13 1.235.151 2.026.062.563-.094 1.245-.302 1.927-.505.459-.208 1.032-.531 1.719-.958.464-.438 1.037-.756 1.62-1.303l73.089-68.677.697-.651c.23-.218.469-.661.704-.88.244-.667.484-1.109.729-1.781.245-.667.265-1.344.515-2.011.021-.677.042-1.348-.057-1.916l-.609-2.047c-.323-.573-.641-1.146-.964-1.719l-1.416-1.505.656.693c.219.234.219.234.109.119l-.656-.697c-.219-.235-.552-.355-.886-.48-.666-.244-1.218-.599-1.885-.849-.672-.244-1.453-.38-1.906-.395-.781-.136-1.349-.042-2.031.161-.792.089-1.355.182-1.928.505-.682.203-1.265.75-1.729 1.183-.463.437-1.041.984-1.396 1.536-13.567 12.526-23.546 21.901-30.161 28.115l-24.854-26.448 31.094-29.214.698-.656c.229-.219.468-.662.703-.88.244-.667.484-1.11.729-1.776.245-.672.375-1.23.515-2.016.021-.672.042-1.349-.057-1.917l-.609-2.041c-.318-.573-.641-1.146-.959-1.719l-1.416-1.51.432.463.328.349Zm53.739 53.168c-.385-.532-.771-1.063-1.26-1.474-.609-.511-.75-.834-.63-.735l.125.105-.615-.511c-.588-.286-1.057-.474-1.302-.677-.693-.161-1.281-.448-1.974-.615-.693-.161-1.365-.104-1.937-.166-.896.083-1.448.245-2 .406-.771.182-1.428.464-1.834.953-.656.287-1.182.672-1.594 1.162-.51.609-.916 1.099-1.203 1.687-28.515 33.844-49.859 59.37-64.057 76.344l-.615.729c-.302.37-.51.615-.468 1.063a7.798 7.798 0 0 0-.636 1.75c-.161.692-.328 1.385-.265 2.057-.042.797.119 1.349.401 2 .062.672.343 1.323.729 1.854.286.656.776 1.062 1.385 1.573.021.224.141.328.386.531.245.203.609.511 1.203.797.489.406 1.182.573 1.875.74.588.286 1.161.343 1.953.39.573.058 1.245 0 2.021-.182.547-.162 1.203-.448 1.854-.729.651-.287 1.182-.672 1.594-1.162.406-.489 1.041-.994 1.448-1.484l64.343-76.932.714-.855c.203-.244.286-.593.49-.833.166-.693.453-1.286.614-1.979.167-.693.229-1.26.271-2.057-.162-.552-.224-1.224-.281-1.896-.287-.651-.573-1.307-.735-1.854Zm53.51 57.179c.234-3.27-.521-7.942-2.256-14.02-1.864-6.162-6.333-11.552-13.531-16.25-3.599-2.355-7.411-4.084-11.573-5.282a38.8 38.8 0 0 0-12.729-1.468 30.813 30.813 0 0 0-12.729 3.479c-4.396 2.068-7.766 5.193-10.552 9.458l-29.511 45.182c-3.396 5.198-5.067 10.381-5.109 15.678-.037 5.302.713 9.973 2.693 13.927 1.849 3.869 4.041 7.203 6.672 9.875 2.5 2.583 4.906 4.724 7.302 6.286l.135.089.13.088.136.089c.578.567 1.244 1 2.047 1.526 5.328 3.479 10.776 5.328 16.296 5.317 6.006.12 11.209-.854 15.25-2.968.308-.177.615-.36.922-.537.308-.182.615-.359.787-.625.349-.536.833-.979 1.265-1.646.349-.536.698-1.067 1.136-1.734.078-.708.208-1.193.291-1.901.079-.708-.057-1.37.021-2.078-.135-.656-.276-1.318-.635-1.932-.36-.615-.583-1.146-.943-1.761-.448-.479-1.026-1.047-1.474-1.531l-1.599-1.042c-.75-.302-1.375-.521-2.078-.599-.708-.083-1.505-.031-2.078-.026-.708-.083-1.234.146-1.849.5-.75.276-1.276.5-1.802.724-1.453.766-3.568 1.094-6.302 1.209-2.74.114-6.021-1.266-9.844-4.146l-.667-.433c-.265-.177-.619-.218-1.151-.562-.536-.349-1.562-1.401-3.078-3.151a18.241 18.241 0 0 1-3.984-5.839c-1.037-2.198-1.583-4.265-1.563-6.343-.192-2.026.75-4.641 2.667-7.573l29.51-45.183c1.219-1.869 2.75-3.338 4.422-4.151 1.672-.807 3.875-1.271 6.256-1.427 2.161-.109 4.64.177 7.427.86 2.479.859 4.875 1.849 7.005 3.244 4.531 2.959 7.125 5.98 7.812 8.714.511 2.995.756 5.245.552 7.016-.041.354.006.572.094 1.015-.172.266-.078.703.099 1.011.005.578.146 1.234.505 1.854.136.656.495 1.271.943 1.755.359.615.807 1.094 1.474 1.531.443.479.979.828 1.729 1.13.537.349 1.156.563 1.86.646.708.084 1.281.078 2.078.026.573-.005 1.234-.146 1.984-.416.526-.224 1.188-.365 1.802-.724.479-.448.964-.891 1.531-1.474.172-.266.568-.578.829-.979l.348-.532a4.899 4.899 0 0 0 .735-1.994c.078-.709.208-1.193.292-1.902Zm18.709-9.344c-.437-.188-.963-.584-1.489-.979l-.964-.579.146.063s-.208.083-.646-.104c-.734-.307-1.24-.349-1.531-.474-.709.047-1.422.094-1.985.198-.708.047-1.484.239-2.046.349-.625.25-1.25.505-1.792.968-.542.464-1.083.922-1.479 1.448-.542.464-.787 1.052-1.037 1.636-.25.588-.557 1.323-.661 1.969a7717.848 7717.848 0 0 0-21.469 50.375l-2.792 6.599-4.838 11.437-1.485 3.521-2.666 6.302-5.641 13.344-.437 1.026c-.12.297-.245.588-.224.942.047.709-.058 1.36-.011 2.068.047.714.151 1.276.407 1.901.046.714.505 1.255.968 1.792.256.63.719 1.172 1.245 1.562.458.542.984.938 1.719 1.25.583.245 1.172.495 1.823.594.583.25 1.442.266 2.151.219.651.104 1.213-.005 1.984-.198.563-.104 1.193-.359 1.88-.76.48-.318 1.021-.777 1.563-1.24.536-.464.932-.99 1.182-1.573.245-.589.703-1.26.953-1.844l11.282-26.687c7.046-3.589 12.51-6.292 16.099-8.229 2.895 24.213 5.203 42.468 6.682 54.505.021.354.104.562.13.916.021.355.047.714.276.98.193.776.448 1.401.906 1.942.256.625.719 1.167 1.245 1.563.313.479.839.875 1.573 1.182.229.271.521.396.818.521.291.12.729.307 1.088.286a4.258 4.258 0 0 0 1.943.303c.651.104 1.214-.006 1.984-.198.568-.105 1.193-.36 1.881-.761.625-.255 1.104-.568 1.645-1.031.542-.464.938-.99 1.391-1.662.396-.52.646-1.109.891-1.697.25-.584.411-1.381.515-2.026-.047-.714-.005-1.214-.052-1.928-3.437-27.031-6.021-47.479-7.594-60.937 19.896-10.255 34.803-18.125 44.808-23.396.208-.088.479-.318.896-.489.213-.084.479-.313.75-.547l1.333-1.511c.396-.521.786-1.047 1.036-1.635l.063-.146c.25-.589.349-1.234.51-2.031-.041-.709-.005-1.214-.047-1.922-.046-.708-.302-1.339-.557-1.964-.401-.687-.651-1.312-.969-1.791-.463-.542-.984-.938-1.448-1.48-.526-.39-1.052-.786-1.635-1.036l-.734-.307-.589-.25c-.354.026-.792-.162-1.088-.287-.355.021-.709.047-.855-.015-.713.041-1.484.234-2.046.343l-1.964.552c-26.229 13.797-45.911 23.969-58.964 30.724l17.855-42.229.432-1.026c.125-.291.104-.651.229-.942-.047-.709.052-1.36.01-2.068-.046-.714-.156-1.276-.406-1.901-.255-.625-.51-1.25-.765-1.88l-1.386-1.62Zm112.172 49.54c-1.364-4.062-4.036-8.099-8.062-11.948s-9.573-6.739-16.557-8.323c-5.901-1.338-11.235-1.567-16.318-.76-5.078.807-9.401 2.604-12.901 5.073-3.807 2.406-6.636 5.515-8.604 9.151-1.563 2.583-2.474 5.156-3.073 7.792-.282 1.244-.526 2.328-.495 3.64-.453 4.146.365 7.755 2.213 11.115 1.849 3.359 3.964 6.286 6.422 9.125 2.297 2.807 4.912 5.687 7.907 8.323 2.838 2.604 5.677 5.203 8.515 7.807 2.683 2.568 5.365 5.13 8.084 7.542 2.369 2.5 4.468 4.77 6.135 6.781 1.63 2.161 2.708 3.875 3.052 5.26.339 1.381.625 2.266.521 2.729l-.177.777c-.068.312.015.656.031 1.312-1.021 4.505-3.641 8.151-7.99 10.76-4.567 2.881-9.145 3.641-13.963 2.547-3.104-.703-6.255-1.906-9.307-3.578-3.203-1.703-5.677-5.203-7.724-10.568-.12-.187-.209-.531-.292-.88-.24-.38-.359-.573-.443-.916-.552-.454-.911-1.021-1.427-1.631-.552-.448-.984-.708-1.531-1.161-.589-.297-1.172-.594-1.797-.734-.776-.178-1.396-.318-2.052-.303-.656.016-1.312.032-2.005.198-.688.172-1.38.344-1.917.547-.76.479-1.177.875-1.594 1.271-.604.516-1.02.912-1.474 1.464a4.19 4.19 0 0 0-.885 1.755l-.458 2.021c-.141.619.026 1.312.198 2 .015.656.182 1.349.51 2.078 3.036 8.193 7.417 14.083 13.479 17.578 5.719 3.583 10.787 5.713 15.13 6.698 5.901 1.333 11.844 1.052 17.823-.86 5.672-1.979 10.625-5.098 14.703-9.401 2.151-2.286 4.058-4.953 5.693-7.849 1.485-2.927 2.495-5.963 3.271-9.38l.073-.312.031-.151c.917-4.037.604-7.698-.864-11.297-1.474-3.599-3.36-6.802-5.625-9.766-2.266-2.958-4.881-5.838-7.683-8.594-2.995-2.64-5.797-5.395-8.635-7.994-2.839-2.604-5.552-5.016-8.24-7.584-2.682-2.567-4.932-4.875-6.718-7.073-1.98-2.078-3.178-3.984-3.829-5.437-.651-1.453-1.062-2.526-.989-2.839.041-1.619.547-3.14 1.521-4.552.817-1.442 2.099-2.786 3.692-4.057 1.526-.958 3.516-1.818 6.245-2.339 2.542-.406 5.943-.286 10.136.662 5.119 1.161 8.395 2.557 9.739 3.844 1.307 1.437 2.318 3.463 3.307 6.297.084.343.204.536.443.916-.073.313.172.693.443.917.364.573.76.989 1.307 1.437.36.573.912 1.026 1.651 1.355l1.797.734c.62.141 1.396.318 2.052.302.656-.016 1.349-.182 2.037-.354.656-.016 1.192-.219 1.802-.735.536-.203 1.104-.567 1.713-1.083.417-.39.865-.943 1.318-1.495.297-.583.594-1.172.922-1.911l.422-1.865c-.011-.656.01-1.468-.162-2.156-.203-.536-.375-1.229-.547-1.922ZM242.317 86.708c-.786.296-1.458.484-2.026.791-.567.302-1.364.818-2.51 1.646l-.229.208-.464.422-.479.86-.755 1.953c-.25.651-.281 1.312-.313 1.974-.031.661.052 1.213.24 1.885.187.672.38 1.344.682 1.912 23.016 43.38 40.365 75.895 51.818 97.531l.104.114c13.38 25.37 23.406 44.506 30.094 57.188-15.974-10.141-27.865-17.88-35.797-22.896-.328-.125-.432-.239-.641-.469l-.843-.927c.317.349.63.693 1.062.938.422.458.422.458.208.229l-.63-.693c-.208-.229-.531-.354-.859-.484-.651-.25-1.188-.604-1.839-.859-.646-.25-1.192-.386-1.854-.417l-1.984-.094c-.672.188-1.24.495-1.912.682-.562.302-1.13.61-1.698.912-.578.526-.932 1.062-1.396 1.484-.354.531-.713 1.068-.963 1.719s-.505 1.302-.641 1.849c-.146.766-.177 1.427.011 2.099.192.672.276 1.224.463 1.896-.208-.229-.198-.448-.291-.787-.214-.229-.094-.333-.094-.333.094.333.187.672.292.786-.011.219.083.558.39 1.12-.213-.229-.193-.672-.276-1.224-.094-.338-.198-.453-.208-.234-.021.443-.031.661.073.776-.011.224.083.557.39 1.125-.213-.229-.307-.568-.505-1.016-.208-.234-.208-.234.021-.442.333-.094.437.02.651.25.094.338.302.567.839.921-.323-.125-.641-.468-.839-.921-.214-.23-.422-.459-.651-.25-.229.208-.24.432-.031.661.208.229.526.578.828 1.141 8.812 16.869 15.5 29.557 19.963 37.937-33.338-21.338-58.422-37.323-74.922-48.042-.322-.125-.651-.255-.963-.598-.328-.125-.547-.136-.87-.261-.547-.135-1.208-.167-1.974-.318l-1.984-.093c-.672.192-1.125.39-1.792.578-.682.411-1.25.713-1.818 1.021l-.463.416-.344.318c-.125.323-.354.536-.588.745-.344.312-.469.64-.599.963-.25.651-.386 1.198-.636 1.849-.255.651-.286 1.313-.317 1.974-.032.662.052 1.219.244 1.886.188.672.375 1.343.683 1.911.302.568.619.912 1.036 1.375l.109.115c.521.578.943 1.041 1.48 1.396 38.474 24.677 67.192 43.26 86.38 55.541l.859.485c.209.229.537.354.974.375l1.974.317c.547.136 1.323.063 1.995-.13.557-.083 1.229-.271 1.792-.573.671-.193 1.135-.609 1.713-1.135l6.578-5.985.808-.734c.229-.208.458-.422.583-.745.359-.536.609-1.187.859-1.838.255-.651.391-1.198.422-1.855.136-.546.063-1.322-.125-1.994-.088-.558-.276-1.229-.463-1.901-5.579-10.532-9.62-18.453-12.454-23.891 9.855 6.432 17.245 11.307 22.178 14.411l.859.485c.208.229.536.354.979.375l1.969.318c.547.135 1.323.062 1.995-.131.557-.083 1.229-.27 1.796-.578.672-.187 1.131-.609 1.709-1.13l7.036-6.406.808-.735c.234-.208.463-.421.588-.744.359-.537.609-1.188.859-1.839.136-.542.277-1.088.422-1.854.136-.547.063-1.323-.125-1.995-.088-.557-.276-1.229-.463-1.901-15.901-30.453-27.964-53.224-36.068-68.625-.307-.562-8.823-16.646-25.656-48.365-16.839-31.494-25.557-48.031-26.162-49.161-.213-.234-.421-.464-.515-.797-.104-.12-.094-.338-.308-.568 0 0-.218-.01-.322-.125-.422-.463-1.063-.937-1.48-1.395-.536-.36-1.073-.714-1.724-.964-.546-.141-1.208-.172-1.974-.318l-1.979-.093Zm95.82 41.349-.547.297c-.276.151-.411.224-.14.073 0 0-.136.078-.547.297-.474.432-.813.791-1.016 1.078-.401.573-.802 1.14-1.062 1.64-.401.568-.729 1.276-.782 1.839-.192.635-.244 1.193-.224 1.891.027.698.047 1.395.204 2.015 1.052 4.578 2.198 9.985 3.786 16.219 1.453 6.307 2.99 13.099 4.599 20.026 2.005 8.313 3.87 16.703 5.875 25.016 1.938 8.526 3.708 16.078 5.099 22.593.802 3.469 1.464 6.657 2.172 9.287a359.134 359.134 0 0 1 1.463 6.656l.167.969c.01.349.162.625.234.76l.073.141c.37.687.808 1.161 1.099 1.708.375.688.808 1.162 1.302 1.427.573.401 1.141.802 1.776.99a3.07 3.07 0 0 0 1.901.573c.636.187 1.334.166 2.032.146a4.149 4.149 0 0 0 1.87-.48c.348-.01.76-.234 1.171-.453l.688-.369c.547-.297 1.021-.73 1.422-1.303.479-.432.88-1.005 1.203-1.713.266-.495.453-1.13.646-1.766.187-.63.166-1.328.146-2.026-.021-.698-.183-1.323-.204-2.021-2.015-8.661-3.541-15.104-4.515-19.541a3414.07 3414.07 0 0 0 31.515-16.823c5.922 6.38 10.469 11.193 13.568 14.307l.719.677c.146.271.432.474.854.599.573.401 1.068.667 1.839.781.5.266 1.13.454 1.828.433.698-.021 1.396-.042 2.021-.203.692-.021 1.244-.318 1.791-.615a4.356 4.356 0 0 0 1.787-.964c.474-.432.948-.864 1.349-1.437.401-.568.666-1.068.994-1.776.266-.495.381-1.266.495-2.037.052-.562.031-1.26.011-1.958-.162-.62-.318-1.245-.48-1.87l-.369-.682-.594-1.099-1.297-1.427c-31.172-32.812-54.344-57.359-69.927-73.766-.286-.203-.646-.541-.792-.812-.286-.203-.5-.266-.781-.464l-1.844-.781c-.63-.193-1.265-.38-1.828-.432l-2.088.062-1.797.615-6.865 3.703Zm14.86 19.99c15.661 16.546 27.354 29.026 35.286 37.151-10.708 5.781-18.609 9.864-23.828 12.677-5.151-22.037-9.021-38.735-11.458-49.828Zm49.783-49.802c-.495 0-1.135.052-1.922.151-.745.25-1.036.349-.891.297l.146-.047s-.146.047-.588.198c-.74.245-1.136.542-1.38.792-.495.489-1.037.838-1.381 1.281-.494.495-.937 1.136-1.281 1.583-.297.589-.588 1.183-.687 1.875-.099.688-.245 1.23-.198 1.875-.094.688.151 1.428.349 2.021a4.43 4.43 0 0 0 .645 1.922c13.766 41.125 23.964 72.094 30.844 92.656.099.292.198.589.448.834.099.297.198.594.443.838.349.542.844 1.037 1.333 1.532.495.489.99.984 1.531 1.13.495.495 1.188.588 1.875.687.594.297 1.287.396 1.927.344.688.099 1.282-.099 2.021-.349.641-.047 1.235-.245 1.922-.641 16.719-5.593 29.339-9.656 37.922-12.526.297-.099.589-.203.839-.448.296-.098.739-.244.984-.494.542-.344.885-.792 1.38-1.282.542-.349.886-.791 1.281-1.583a3.694 3.694 0 0 0 .74-1.729c.094-.688.193-1.38.292-2.068-.052-.646-.099-1.286-.151-1.927l-.198-.588c-.151-.448-.443-.839-.594-1.282-.344-.547-.693-1.088-1.188-1.578-.494-.495-.937-.838-1.432-1.333-.588-.292-1.182-.589-1.776-.886-.687-.093-1.234-.244-1.922-.343-.692-.094-1.333-.047-1.974.005-.739.245-1.333.443-1.922.641-13.906 4.656-24.26 8.125-31.114 10.25l-28.87-86.24c-.099-.297-.344-.542-.443-.839-.099-.296-.349-.541-.448-.838-.489-.495-.838-1.037-1.333-1.526-.49-.495-.937-.839-1.432-1.333-.74-.245-1.328-.542-1.875-.688-.688-.099-1.235-.245-1.922-.344Zm77.117-22.118c-.464.073-1.104.011-1.745-.057l-1.104.011.156-.026s-.13.177-.594.244c-.77.115-1.213.339-1.52.386-.573.401-1.141.797-1.563 1.177-.568.401-1.12.953-1.536 1.333-.391.531-.787 1.063-1.006 1.724-.218.662-.432 1.328-.494 1.964-.219.666-.131 1.281-.037 1.901.094.614.208 1.385.453 1.979a7296.219 7296.219 0 0 0 7.709 53.109l1.026 6.943 1.781 12.036.552 3.704.979 6.635 2.083 14.042.157 1.083c.047.307.093.615.291.901.401.573.646 1.167 1.047 1.74.401.567.776.989 1.308 1.38.401.573 1.062.791 1.729 1.005.531.396 1.192.615 1.833.677.661.219 1.302.281 2.073.167.62-.094 1.234-.183 1.828-.427.62-.094 1.344-.516 1.917-.917.593-.245 1.01-.625 1.562-1.177.417-.375.808-.912 1.183-1.594.239-.51.458-1.172.671-1.833.219-.667.282-1.307.188-1.922-.089-.62-.047-1.412-.141-2.031l-4.161-28.084c4.073-6.593 7.265-11.64 9.281-15.093 14.766 18.786 26 32.89 33.375 42.208.198.286.375.417.573.703.203.287.401.573.734.682.552.547 1.084.943 1.75 1.157.532.395 1.193.614 1.834.677.505.239 1.146.302 1.922.187.328.11.635.063.947.016.308-.042.771-.11 1.058-.313.614-.088 1.208-.338 1.781-.734.594-.25 1.01-.625 1.563-1.177.416-.38.807-.912 1.182-1.599.39-.531.635-1.037.849-1.703.219-.662.281-1.302.323-2.094.062-.641-.032-1.26-.12-1.875-.094-.62-.359-1.365-.609-1.964-.396-.567-.62-1.01-1.021-1.583-16.651-20.87-29.245-36.667-37.417-47.125 11.422-18.724 19.885-32.911 25.573-42.427.13-.177.24-.505.505-.859.13-.177.24-.511.349-.844l.339-1.943c.067-.64.13-1.281.036-1.896l-.021-.156c-.093-.614-.338-1.208-.609-1.958-.396-.573-.62-1.011-1.021-1.584-.401-.572-.932-.968-1.463-1.359-.688-.375-1.219-.766-1.724-1.005-.667-.219-1.308-.281-1.969-.5-.641-.063-1.281-.125-1.896-.031l-.771.109-.62.094c-.286.198-.75.271-1.057.312-.286.203-.573.401-.724.427-.573.396-1.12.953-1.536 1.328l-1.365 1.464c-14.917 24.917-26.203 43.464-33.687 55.771l-6.579-44.443-.161-1.083c-.047-.307-.245-.594-.292-.901-.401-.573-.646-1.167-1.047-1.74-.401-.568-.776-.989-1.307-1.38-.531-.396-1.062-.792-1.594-1.182l-1.989-.657Zm89.743-8.762c-.625-.14-1.25-.286-1.875-.27-.782.01-1.094-.136-.943-.141h.156l-.776.016c-.62.166-1.088.333-1.401.338-.614.323-1.234.49-1.854.818-.62.323-1.078.797-1.537 1.12-.614.635-.916 1.109-1.218 1.583-.453.635-.755 1.266-.745 1.891-.297.63-.443 1.255-.427 1.88.015.781.026 1.401.193 2.021.708 43.364 1.354 75.958 1.781 97.64l.021.933c.01.468.015.781.333 1.088a7.65 7.65 0 0 0 .656 1.703c.323.62.651 1.235 1.125 1.693.479.615.953.917 1.584 1.219.479.458 1.109.755 1.734.901.63.297 1.255.286 2.036.271.157.151.313.151.625.145a5.191 5.191 0 0 0 1.401-.187c.625-.011 1.245-.333 1.86-.662.62-.166 1.083-.484 1.698-.968.463-.318.922-.797 1.375-1.433.302-.474.604-1.104.901-1.734a4.133 4.133 0 0 0 .432-1.88c-.01-.62.13-1.406.115-2.031l-1.948-98.256-.021-1.093c-.005-.313-.167-.62-.172-.933-.328-.614-.495-1.239-.818-1.854-.328-.62-.646-1.078-1.125-1.693-.479-.302-.953-.765-1.432-1.224-.63-.296-1.26-.598-1.734-.901Zm94.294 6.26c-.448-.208-1.047-.432-1.651-.656-.776-.084-1.088-.12-.911-.255 0 0-.177.135-.641.083-.62-.068-1.104.036-1.411 0-.657.239-1.308.484-1.948.568-.657.239-1.328.635-1.688 1.067-.672.396-1.036.828-1.411 1.412-.537.567-.896 1-.969 1.62-.38.583-.62 1.343-.687 1.963-.068.62-.141 1.24-.053 1.875-4.427 36.865-7.677 64.599-9.734 83.047-10.87-40.453-19.094-70.875-24.526-91.104l-.208-.964c-.276-.344-.412-.515-.532-.844-.416-.515-.828-1.036-1.239-1.552-.573-.536-1-.895-1.432-1.26-.584-.375-1.188-.599-1.792-.823-.776-.088-1.375-.312-1.995-.38l-7.911-.886-1.084-.119c-.307-.037-.635.088-.948.052-.656.239-1.307.479-1.791.583-.657.245-1.328.641-1.828.896-.688.552-1.047.984-1.412 1.411-.531.568-.911 1.157-1.135 1.761-.38.583-.448 1.203-.521 1.823-.083.776-.156 1.396-.068 2.031-4.963 43.083-8.573 75.484-10.963 96.88l-.12 1.089c-.031.307-.068.619.052.942.24.657.328 1.297.568 1.948.239.657.5 1.157.911 1.672.24.656.828 1.037 1.412 1.417.416.515 1 .896 1.604 1.12a4.367 4.367 0 0 0 1.963.687l.62.068c.307.036.776.088 1.255-.016.62.068 1.417 0 2.068-.239.5-.261 1-.516 1.672-.912.5-.26 1.015-.672 1.552-1.239.359-.433.896-1 1.276-1.584l.672-1.812c.068-.62.312-1.375.38-1.995l8.594-77.052c9.958 37.37 17.51 65.364 22.635 84.146l.209.963c-.037.308.239.651.531.844a3.063 3.063 0 0 0 1.239 1.552c.261.5.844.875 1.433 1.255.583.381 1.166.761 1.786.828.604.224 1.224.292 2 .381l10.386 1.156.932.104c.312.037.776.089 1.104-.031.5-.261 1.135-.344 1.792-.584.651-.244 1.151-.5 1.823-.895l1.416-1.412c.38-.588.604-1.193.979-1.776.224-.604.454-1.208.678-1.807.067-.62 0-1.417.067-2.037 5.115-43.062 8.87-75.291 11.427-96.823l.016-.156.104-.932c.037-.307-.088-.635-.052-.948-.24-.651-.328-1.292-.568-1.948-.239-.651-.5-1.151-.911-1.667-.412-.52-.828-1.036-1.255-1.395-.589-.381-1.172-.761-1.761-1.141Zm61.885 15.727-.151-.047c-3.62-.969-7.479-1.682-11.24-2.203-3.854-.224-7.698.047-11.578.958-3.88.917-7.547 2.714-10.995 5.391-3.5 2.833-5.994 6.63-7.39 11.099l-18.13 58.073-.235.745a4.997 4.997 0 0 0-.219 1.234c-1.156 4.219-1.026 8.505.438 12.724 1.266 4.318 3.406 7.927 6.125 10.734 2.672 2.959 5.578 5.172 8.964 6.886 3.239 1.667 6.421 2.984 9.552 3.963 4.317 1.349 8.474 2.157 12.625 2.469 4.005.271 7.744-.193 11.328-1.203 3.583-1.005 6.755-2.792 9.562-5.51 2.719-2.417 4.683-5.563 5.797-9.141l9.719-31.12.323-1.041c.094-.297.036-.641-.021-.985-.109-.693-.073-1.333-.182-2.021-.115-.687-.271-1.229-.578-1.812-.308-.589-.615-1.177-1.12-1.656-.5-.485-.854-.922-1.36-1.407-.547-.338-1.093-.672-1.692-.859l-1.938-.604-22.781-7.11-1.042-.328c-.297-.093-.64-.036-.937-.13-.693.115-1.334.078-2.021.188-.688.109-1.276.416-1.813.578-.739.26-1.177.614-1.614.968-.63.454-1.115.959-1.448 1.506-.484.505-.818 1.052-1.005 1.651-.235.744-.417 1.338-.459 1.979-.182.599-.218 1.239-.109 1.927.115.687.224 1.375.531 1.963.115.688.417 1.277.922 1.761.307.583.807 1.068 1.313 1.552.505.484 1.052.818 1.645 1.005a4.48 4.48 0 0 0 1.938.604c6.953 2.334 12.312 4.006 15.885 5.125l-7.343 23.526c-.375 1.193-.948 1.99-1.433 2.495-.682.604-1.807 1.068-3.276 1.594-1.468.521-3.442.557-5.864.453-2.615 0-5.537-.583-8.813-1.604-2.38-.745-4.568-1.594-6.469-2.839-2.286-1.041-3.989-2.39-5.203-3.75-1.208-1.359-2.119-2.625-2.494-4.047-.521-1.468-.558-3.442.036-5.869l18.089-57.927c.557-1.787 1.27-3.032 2.343-3.844.922-.854 2.438-1.526 4.354-1.906a26.098 26.098 0 0 1 6.995-.433c2.526.297 5.146.792 7.683 1.578.296.094.442.141.786.089 0 0 .448.135 1.089.172 3.083 1.125 5.734 3.099 8.109 5.963 2.375 2.87 3.51 5.511 3.557 7.974-.14.448-.234.745-.177 1.089a.857.857 0 0 0 .214.885c.114.688.375 1.427.682 2.011.109.687.463 1.125.969 1.609.307.589.807 1.073 1.354 1.406.505.485 1.25.714 1.844.901.552.334 1.145.521 1.937.605.594.187 1.287.072 1.974-.037.641.037 1.182-.12 1.917-.38.536-.162 1.125-.469 1.755-.922.437-.354.922-.859 1.406-1.359.485-.506.818-1.052 1.203-1.75.183-.599.37-1.193.558-1.787.036-.646.119-1.437.156-2.078.062-7.005-2.276-13.13-7.115-18.562-4.739-5.24-10.432-8.98-17.135-11.068l-.297-.094Zm163.618 107.99c.422-3.182-.036-7.802-1.375-13.849-1.463-6.135-5.51-11.672-12.276-16.698-3.38-2.51-7.005-4.427-11.005-5.844a37.943 37.943 0 0 0-12.365-2.187 30.157 30.157 0 0 0-12.656 2.646c-4.422 1.765-7.906 4.625-10.88 8.63l-31.536 42.453c-3.625 4.88-5.568 9.849-5.922 15.031-.349 5.183.109 9.797 1.812 13.782 1.578 3.895 3.526 7.286 5.943 10.052 2.292 2.671 4.515 4.906 6.771 6.583l.25.187.125.089c.531.594 1.156 1.057 1.911 1.615 5.005 3.724 10.229 5.849 15.625 6.171 5.87.469 11.016-.177 15.094-2.005.312-.156.62-.317.932-.474.313-.156.625-.312.807-.562.375-.505.87-.912 1.339-1.537l1.208-1.63c.12-.687.276-1.156.396-1.838.12-.688.026-1.344.146-2.032-.094-.656-.193-1.307-.505-1.932-.318-.62-.505-1.151-.823-1.776-.406-.495-.938-1.083-1.349-1.583l-1.5-1.115c-.719-.344-1.313-.588-2-.708-.688-.125-1.469-.12-2.031-.146-.688-.125-1.214.068-1.839.38-.745.224-1.276.412-1.807.599-1.464.667-3.552.859-6.235.813-2.682-.053-5.812-1.599-9.38-4.641l-.625-.464c-.255-.187-.593-.244-1.099-.619-.5-.37-1.442-1.459-2.823-3.261a18.002 18.002 0 0 1-3.552-5.943c-.88-2.213-1.297-4.27-1.151-6.296-.073-2 1.011-4.5 3.058-7.256l31.531-42.448c1.302-1.755 2.89-3.104 4.573-3.796 1.677-.693 3.859-1.016 6.203-1.026 2.12.02 4.526.447 7.213 1.276 2.375.984 4.657 2.099 6.662 3.588 4.255 3.162 6.609 6.271 7.12 8.985.328 2.963.432 5.177.125 6.895-.058.344-.026.558.036.995-.182.25-.12.688.037 1a3.683 3.683 0 0 0 .385 1.839c.094.656.411 1.276.818 1.776a4.3 4.3 0 0 0 1.349 1.583c.406.495.906.87 1.63 1.208.5.375 1.094.62 1.781.74.688.125 1.245.151 2.026.151.563.026 1.219-.073 1.964-.292.531-.192 1.187-.286 1.807-.604.5-.406.995-.812 1.589-1.344.182-.255.588-.536.864-.911l.375-.5c.37-.5.714-1.219.833-1.906.12-.688.276-1.157.396-1.844Zm63.986 41.08c-.323-.339-.64-.901-1.062-1.573-.542-.563-.641-.896-.537-.787l.11.115s-.219-.005-.542-.344c-.542-.562-.974-.797-1.193-1.021-.656-.239-1.312-.474-1.744-.703a6.862 6.862 0 0 0-2.089-.38c-.661-.021-1.323-.036-1.875.063-.667.203-1.338.411-1.896.729-.666.203-1.12.635-1.567 1.062l-1.469 1.401-56.12 53.495c-1.922 1.828-4.594 2.87-7.693 3.234-3.203.256-6.588-1.26-10.26-4.656a19.646 19.646 0 0 1-2.99-4.047c-.745-1.229-1.047-2.453-1.239-3.557a10.961 10.961 0 0 1-.016-3.865c.141-1.432.516-3.296 1.234-5.489.115-.328.235-.656.355-.985.01-.437.015-.661.13-.989l-.172-1.99c-.203-.666-.406-1.333-.505-1.885-.318-.563-.745-1.234-1.172-1.682-.432-.454-.969-1.021-1.401-1.469l-1.745-.927c-.656-.235-1.422-.365-1.974-.49-.766-.125-1.427-.14-1.984-.047-.776.094-1.328.193-1.886.511-.666.203-1.229.521-1.677.953-.448.208-.786.531-1.015.745l-.563.536c-.453.432-.797.974-1.031 1.636l-.709 1.968c-.833 2.516-1.447 5.037-1.734 7.901a24.005 24.005 0 0 0 .24 8.391c.369 2.88 1.297 5.656 2.786 8.12 1.255 2.682 2.964 5.146 5.115 7.406l.323.339.218.223s.323.344.974.797c5.823 5.657 12.594 8.469 20.547 8.219 7.505-.266 13.854-2.651 18.823-7.385l57.021-54.354.792-.756.463-.869.922-1.745c.234-.657.255-1.318.375-1.865.016-.661.031-1.323-.057-2.099-.209-.666-.302-1.219-.511-1.885Z"/><path fill="#010001" d="M314.819 784.211c-15.729 27.007 38.591 46.744 58.596 44.634 26.968-2.84 44.276-50.316 52.259-73.822 11.54 7.245 19.391 20.16 31.672 27.185 37.587 21.503 85.964 21.135 120.356-8.297 27.724 76.14 132.768 69.056 162.85 0 14.188-32.575 8.18-74.636 8.18-109.874 0-72.307 1.584-144.097 1.584-216.308H839v-42.923H617.29c-6.321 0-16.266-2.051-22.171.576-5.663 2.514-5.63 41.574 0 43.773 9.227 3.608 24.995.285 34.841.285h80.767v195.715c0 31.577 4.962 68.901-2.11 99.568-12.917 56.011-90.691 57.734-101.354-1.717-2.193-12.226 11.957-32.546 13.196-46.352 2.511-27.982-5.022-54.435-12.67-80.687l-42.757 12.017c4.567 26.888 14.249 55.422 4.221 82.405-16.096 43.327-70.745 51.315-100.822 20.599-20.312-20.748-23.481-59.701-30.619-87.557l-36.42-142.486c-5.904-23.042-16.343-48.313-18.476-72.104-2.587-28.867 11.349-57.734 36.426-69.817 31.271-15.066 62.993-.969 80.235 30.329 3.849 6.99 7.423 27.69 13.459 31.761 7.04 4.755 34.101-9.479 42.495-11.155-7.423-27.803-14.167-55.309-34.841-75.54-53.399-52.26-147.801-32.683-175.252 41.199-15.943 42.905-2.341 81.519 8.443 123.61 12.599 49.175 24.88 98.469 37.478 147.638 5.104 19.922 17.16 46.305 16.892 66.952-.088 7.132-6.075 16.303-9.238 22.317-8.865 16.879-20.998 63.309-41.436 66.381-15.061 2.271-29.721-13.099-42.758-18.311v.006Z"/></g></svg>