<?xml version="1.0" encoding="UTF-8" standalone="no"?><!-- Generator: Gravit.io --><svg xmlns="http://www.w3.org/2000/svg" xmlns:xlink="http://www.w3.org/1999/xlink" style="isolation:isolate" viewBox="0 0 100 100" width="100pt" height="100pt"><defs><clipPath id="_clipPath_4G9FzJLnewUtrFatGQbm5005e85DWvGa"><rect width="100" height="100"/></clipPath></defs><g clip-path="url(#_clipPath_4G9FzJLnewUtrFatGQbm5005e85DWvGa)"><path d="M 10.5 0 L 89.5 0 C 95.295 0 100 4.705 100 10.5 L 100 89.5 C 100 95.295 95.295 100 89.5 100 L 10.5 100 C 4.705 100 0 95.295 0 89.5 L 0 10.5 C 0 4.705 4.705 0 10.5 0 Z" style="stroke:none;fill:#171717;stroke-miterlimit:10;"/><path d=" M 2.514 86.464 C -0.355 91.008 9.553 94.329 13.202 93.974 C 18.121 93.496 21.278 85.508 22.734 81.553 C 24.839 82.772 26.271 84.945 28.511 86.127 C 35.367 89.745 44.191 89.683 50.464 84.731 C 55.521 97.542 74.681 96.35 80.168 84.731 C 82.756 79.25 81.66 72.173 81.66 66.244 C 81.66 54.078 81.949 41.999 81.949 29.849 L 98.125 29.849 L 98.125 22.627 L 57.685 22.627 C 56.532 22.627 54.718 22.282 53.641 22.724 C 52.608 23.147 52.614 29.719 53.641 30.089 C 55.324 30.696 58.2 30.137 59.996 30.137 L 74.728 30.137 L 74.728 63.067 C 74.728 68.38 75.633 74.66 74.343 79.82 C 71.987 89.244 57.801 89.534 55.856 79.531 C 55.456 77.474 58.037 74.055 58.263 71.732 C 58.721 67.024 57.347 62.573 55.952 58.156 L 48.153 60.178 C 48.986 64.702 50.752 69.503 48.923 74.043 C 45.987 81.333 36.019 82.677 30.533 77.509 C 26.828 74.018 26.25 67.464 24.948 62.777 L 18.305 38.803 C 17.228 34.926 15.324 30.674 14.935 26.671 C 14.463 21.814 17.005 16.957 21.579 14.924 C 27.283 12.389 33.069 14.761 36.214 20.027 C 36.916 21.203 37.568 24.686 38.669 25.371 C 39.953 26.171 44.889 23.776 46.42 23.494 C 45.066 18.816 43.836 14.188 40.065 10.784 C 30.325 1.991 13.106 5.285 8.099 17.716 C 5.191 24.935 7.672 31.432 9.639 38.514 C 11.937 46.788 14.177 55.082 16.475 63.355 C 17.406 66.707 19.605 71.146 19.556 74.62 C 19.54 75.82 18.448 77.363 17.871 78.375 C 16.254 81.215 14.041 89.027 10.313 89.544 C 7.566 89.926 4.892 87.34 2.514 86.463 L 2.514 86.464 Z " fill="rgb(255,0,0)"/></g></svg>